<?xml version="1.0" encoding="utf-8"?>
<!-- Generator: Adobe Illustrator 19.0.0, SVG Export Plug-In . SVG Version: 6.00 Build 0)  -->
<svg version="1.1" id="Layer_1" xmlns="http://www.w3.org/2000/svg" xmlns:xlink="http://www.w3.org/1999/xlink" x="0px" y="0px"
	 viewBox="0 0 300 300" style="enable-background:new 0 0 300 300;" xml:space="preserve">
<style type="text/css">
	.st0{display:none;}
	.st1{display:inline;fill:#FFFFFF;}
	.st2{display:inline;}
	.st3{fill:#FFFFFF;}
	.st4{display:inline;fill:none;stroke:#FFFFFF;stroke-width:20;stroke-miterlimit:10;}
	.st5{display:inline;fill:none;stroke:#FFFFFF;stroke-width:10;stroke-miterlimit:10;}
	.st6{display:none;fill:#FFFFFF;}
	.st7{display:inline;fill:#00D66C;}
</style>
<rect id="XMLID_1_" class="st0" width="300" height="300"/>
<g id="XMLID_2_" class="st0">
	<polygon id="XMLID_108_" class="st1" points="150,32.7 179.1,122.3 273.3,122.3 197.1,177.7 226.2,267.3 150,211.9 73.8,267.3 
		102.9,177.7 26.7,122.3 120.9,122.3 	"/>
</g>
<g id="XMLID_5_" class="st0">
	<g id="XMLID_3_" class="st2">
		<path id="XMLID_21_" class="st3" d="M132.8,73.3c33.8,0,61.2,27.5,61.2,61.2s-27.5,61.2-61.2,61.2s-61.2-27.5-61.2-61.2
			S99,73.3,132.8,73.3 M132.8,53.3c-44.9,0-81.2,36.4-81.2,81.2s36.4,81.2,81.2,81.2s81.2-36.4,81.2-81.2S177.7,53.3,132.8,53.3
			L132.8,53.3z"/>
	</g>
	<line id="XMLID_4_" class="st4" x1="181.6" y1="186.9" x2="248.4" y2="253.7"/>
</g>
<g id="XMLID_12_" class="st0">
	<g id="XMLID_6_" class="st2">
		<path id="XMLID_31_" class="st3" d="M176.3,161.3L190,248h-80l13.7-86.8H176.3 M193.4,141.3h-86.8L86.6,268h126.8L193.4,141.3
			L193.4,141.3z"/>
	</g>
	<g id="XMLID_8_" class="st2">
		<path id="XMLID_34_" class="st3" d="M188.2,96.8l-10.8,46.8h-54.9l-10.8-46.8H188.2 M213.4,76.8H86.6l20,86.8h86.8L213.4,76.8
			L213.4,76.8z"/>
	</g>
	<path id="XMLID_7_" class="st5" d="M150.1,81.8c0.5-6.8,0.3-15.1-1.5-24.3c-0.6-3.2-1.4-6.1-2.2-8.8"/>
	
		<ellipse id="XMLID_9_" transform="matrix(0.9005 -0.4348 0.4348 0.9005 -3.9601 66.4597)" class="st1" cx="143.3" cy="41.9" rx="8.5" ry="11.9"/>
	<circle id="XMLID_10_" class="st1" cx="150" cy="120.2" r="13.4"/>
</g>
<g id="XMLID_13_" class="st0">
	<ellipse id="XMLID_111_" class="st1" cx="150" cy="180" rx="21" ry="95.2"/>
</g>
<path id="XMLID_18_" class="st6" d="M170.3,92.7c0.9-23-13.9-39.3-18-43.6c-3.5,2.9-22.6,19-22.5,43.6c0.1,17.6,10.1,38.4,20.3,38.3
	C160.2,131,169.6,109.9,170.3,92.7z"/>
<g id="XMLID_24_" class="st0">
	<rect id="XMLID_20_" x="45" y="81" class="st1" width="198" height="18"/>
	<rect id="XMLID_39_" x="45" y="108" class="st1" width="198" height="18"/>
	<rect id="XMLID_25_" x="45" y="135" class="st1" width="198" height="18"/>
	<rect id="XMLID_28_" x="45" y="162" class="st1" width="198" height="18"/>
	<rect id="XMLID_41_" x="45" y="189" class="st1" width="198" height="18"/>
	<rect id="XMLID_30_" x="45" y="36" class="st1" width="198" height="36"/>
	<rect id="XMLID_29_" x="45" y="216" class="st1" width="198" height="36"/>
	<rect id="XMLID_19_" x="45" y="36" class="st1" width="27" height="216"/>
	<rect id="XMLID_37_" x="216" y="36" class="st1" width="27" height="216"/>
</g>
<g id="XMLID_46_" class="st0">
	<rect id="XMLID_42_" x="108" y="126" class="st1" width="72" height="81"/>
	<rect id="XMLID_44_" x="108" y="216" class="st1" width="72" height="18"/>
	<rect id="XMLID_45_" x="108" y="243" class="st1" width="72" height="18"/>
	<polygon id="XMLID_43_" class="st1" points="72,170.9 144.7,45 217.4,170.9 	"/>
</g>
<g id="XMLID_48_" class="st0">
	<path id="XMLID_47_" class="st1" d="M162,201.9c-16.9-8.6-33.8-17.1-50.6-25.7c-10.1,0-38.2,0-48.4,0c0-25.7,0-38.6,0-64.3
		c10.1,0,38.2,0,48.4,0c16.9-8.6,33.8-17.1,50.6-25.7C162,111.9,162,176.1,162,201.9z"/>
	<path id="XMLID_50_" class="st5" d="M171,153c5,0,9-4,9-9s-4-9-9-9"/>
	<path id="XMLID_49_" class="st5" d="M171,171c14.9,0,27-12.1,27-27s-12.1-27-27-27"/>
	<path id="XMLID_51_" class="st5" d="M171,189c24.9,0,45-20.1,45-45s-20.1-45-45-45"/>
	<path id="XMLID_52_" class="st5" d="M171,207c34.8,0,63-28.2,63-63s-28.2-63-63-63"/>
</g>
<g id="XMLID_54_" class="st0">
	<g id="XMLID_56_" class="st2">
		<path id="XMLID_69_" class="st3" d="M178,109.2v132.9c-12.1,4.5-23.2,5.6-31,5.6c-12.2,0-22.7-2.5-31-5.6V109.2H178 M198,89.2
			c-34,0-68,0-102,0c0,55.3,0,110.5,0,165.8c8.5,4.5,26.6,12.8,51,12.8c9.6,0,29.5-1.3,51-12.8C198,199.8,198,144.5,198,89.2
			L198,89.2z"/>
	</g>
	<g id="XMLID_53_" class="st2">
		<path id="XMLID_68_" class="st3" d="M147,127.5c9.6,0,29.5-1.3,51-12.8c0-8.5,0-17,0-25.5c0-4.1-4-11-12.8-15.7
			c-10.5-5.6-21.8-4-25.5-9.8c-4.9-7.8,1.7-16.5-3.6-22.6c-1.6-1.8-4.3-2.9-9.2-2.9c-4.8,0-7.6,1.1-9.2,2.9
			c-5.3,6.2,1.4,15.1-3.6,22.6c-4.3,6.4-14.6,3.3-25.5,9.7C101.1,77.8,96,82.9,96,89.2c-0.3,8.4,0.3,17.1,0,25.5
			C104.5,119.3,122.6,127.5,147,127.5z"/>
	</g>
</g>
<g id="XMLID_55_" class="st0">
	<g id="XMLID_58_" class="st2">
		<path id="XMLID_75_" class="st3" d="M102.3,71.9c14.5,0,27.9,6.5,36.7,18l14.4,18.5l14.4-18.5c8.7-11.2,21.6-17.6,35.4-17.6
			c10.8,0,20.6,3.9,27.5,11c7.4,7.6,11.3,18.7,10.6,30.5c-0.8,12.8-7,24.8-17.1,32.8l-0.8,0.7l-0.7,0.7l-69.5,69.5l-29.4-28.6
			l-42.3-41.1l-0.6-0.5l-0.6-0.5c-10.2-8.4-16.3-20.2-17-33.4c-0.7-11.7,3.1-22.7,10.3-30.2C80.6,76,91,71.9,102.3,71.9 M102.3,53.6
			c-15.7,0-31,5.7-41.7,16.8c-22.6,23.3-21.2,66.3,8.2,90.4c28.2,27.4,56.4,54.8,84.6,82.2c27.4-27.4,54.8-54.8,82.2-82.2
			c29.7-23.5,31.4-66.8,8.2-90.4c-10.7-10.9-25.4-16.5-40.6-16.5c-18.2,0-36.9,8.1-49.8,24.7C140.3,61.7,120.9,53.6,102.3,53.6
			L102.3,53.6z"/>
	</g>
</g>
<g id="XMLID_60_" class="st0">
	<g id="XMLID_57_" class="st2">
		<path id="XMLID_83_" class="st3" d="M165.4,72c0,17.5,0,35,0,52.5c2,0.3,28.2,7.8,32.6,30c0.4,2.2,0.5,4.7,0,7.5
			c0,27.5,0,62.5,0,90c-40.7,0-48.9,0-89.6,0c0-30,0-60,0-90c-0.5-2.8-0.4-5.3,0-7.5c4.3-22.2,30.6-29.7,32.6-30c0-17.5,0-35,0-52.5
			H165.4 M185.4,52h-20H141h-20v20v38.9c-12.8,6.6-28.1,19-32.2,39.7c-0.8,4.2-1,8.5-0.4,12.9V252v20h20H198h20v-20v-88.5
			c0.6-4.3,0.5-8.7-0.4-12.9c-4.1-20.7-19.4-33.1-32.2-39.7V72V52L185.4,52z"/>
	</g>
	<line id="XMLID_59_" class="st4" x1="127.2" y1="208.5" x2="177" y2="158.7"/>
	<line id="XMLID_62_" class="st4" x1="126.5" y1="157.9" x2="177.8" y2="209.2"/>
</g>
<g id="XMLID_63_" class="st0">
	<g id="XMLID_66_" class="st2">
		<path id="XMLID_91_" class="st3" d="M208.9,113.8c12.7,0,23.1,10.4,23.1,23.1S221.6,160,208.9,160H155v-46.2H208.9 M208.9,93.8
			H135V180h73.9c23.8,0,43.1-19.3,43.1-43.1S232.7,93.8,208.9,93.8L208.9,93.8z"/>
	</g>
	<g id="XMLID_65_" class="st2">
		<path id="XMLID_94_" class="st3" d="M133,113.8V160H79.1C66.4,160,56,149.6,56,136.9s10.4-23.1,23.1-23.1H133 M153,93.8H79.1
			c-23.8,0-43.1,19.3-43.1,43.1S55.3,180,79.1,180H153V93.8L153,93.8z"/>
	</g>
</g>
<g id="XMLID_88_" class="st0">
	<line id="XMLID_73_" class="st4" x1="270" y1="54" x2="27" y2="54"/>
	<line id="XMLID_81_" class="st4" x1="270" y1="144" x2="27" y2="144"/>
	<line id="XMLID_82_" class="st4" x1="144" y1="234" x2="27" y2="234"/>
	<line id="XMLID_74_" class="st4" x1="270" y1="234" x2="180" y2="234"/>
	<line id="XMLID_78_" class="st4" x1="225" y1="279" x2="225" y2="189"/>
</g>
<g id="XMLID_99_" class="st0">
	<circle id="XMLID_90_" class="st7" cx="153" cy="90" r="45"/>
	<path id="XMLID_97_" class="st7" d="M198,153c0-24.9-20.1-45-45-45s-45,20.1-45,45"/>
	<rect id="XMLID_98_" x="108" y="153" class="st7" width="90" height="90"/>
</g>
<g id="XMLID_15_" class="st0">
	<line id="XMLID_11_" class="st4" x1="117" y1="180" x2="193.5" y2="103.5"/>
	<line id="XMLID_16_" class="st4" x1="193.5" y1="180" x2="117" y2="103.5"/>
</g>
<g id="XMLID_40_" class="st0">
	<g id="XMLID_17_" class="st2">
		<path id="XMLID_115_" class="st3" d="M135,110c14,0,27.9,4.8,39,13.4c9.8,7.6,17.2,18,21.2,29.6c-4,11.6-11.4,22-21.2,29.6
			c-11.1,8.7-25,13.4-39,13.4s-27.9-4.8-39-13.4c-9.8-7.6-17.2-18-21.2-29.6c4-11.6,11.4-22,21.2-29.6C107.1,114.8,121,110,135,110
			 M135,90c-38.1,0-71.6,26.1-81,63c9.4,36.9,42.9,63,81,63s71.6-26.1,81-63C206.6,116.1,173.1,90,135,90L135,90z"/>
	</g>
	<circle id="XMLID_38_" class="st1" cx="135" cy="153" r="36"/>
</g>
<g id="XMLID_72_">
	<rect id="XMLID_102_" x="81" y="81" class="st3" width="117" height="73.4"/>
	<rect id="XMLID_89_" x="198" y="81" class="st3" width="72" height="216"/>
	<polygon id="XMLID_80_" class="st3" points="125.9,190.4 0,117.7 125.9,45 	"/>
</g>
</svg>
